<svg id="Layer_1" data-name="Layer 1" xmlns="http://www.w3.org/2000/svg" viewBox="0 0 600 600"><defs><style>.cls-1{fill:#3b4c61;}.cls-2{fill:#40c4ff;}</style></defs><ellipse class="cls-1" cx="300" cy="300" rx="40.01" ry="38.25"/><path class="cls-2" d="M321.42,294.54a9.4,9.4,0,0,0-9.61-9.19H287.25a9.4,9.4,0,0,0-9.61,9.19v10.92a9.4,9.4,0,0,0,9.61,9.19h24.56a9.4,9.4,0,0,0,9.61-9.19ZM307,300.82,296,306c-.44.22-1.9-.08-1.9-.55V294.79c0-.48,1.48-.77,1.91-.54l10.54,5.49C307,300,307.42,300.59,307,300.82Z"/></svg>