<svg id="Layer_1" data-name="Layer 1" xmlns="http://www.w3.org/2000/svg" viewBox="0 0 600 600"><defs><style>.cls-1{fill:#3b4c61;}.cls-2{fill:#40c4ff;}</style></defs><circle class="cls-1" cx="300" cy="300" r="42"/><path class="cls-2" d="M313,284.11a2.89,2.89,0,1,0,2.88,2.89A2.89,2.89,0,0,0,313,284.11Z"/><path class="cls-2" d="M300.2,287.81a12.13,12.13,0,1,0,12.13,12.13A12.14,12.14,0,0,0,300.2,287.81Zm0,19.9a7.77,7.77,0,1,1,7.77-7.77A7.78,7.78,0,0,1,300.2,307.71Z"/><path class="cls-2" d="M309.83,324.56H290.17a14.8,14.8,0,0,1-14.79-14.79V290.11a14.8,14.8,0,0,1,14.79-14.79h19.66a14.8,14.8,0,0,1,14.79,14.79v19.66A14.8,14.8,0,0,1,309.83,324.56ZM290.17,280A10.17,10.17,0,0,0,280,290.11v19.66a10.17,10.17,0,0,0,10.16,10.16h19.66A10.17,10.17,0,0,0,320,309.77V290.11A10.17,10.17,0,0,0,309.83,280Z"/></svg>