<svg id="Layer_1" data-name="Layer 1" xmlns="http://www.w3.org/2000/svg" viewBox="0 0 600 600"><defs><style>.cls-1{fill:#3b4c61;}.cls-2,.cls-3{fill:#40c4ff;}.cls-3{fill-rule:evenodd;}</style></defs><circle class="cls-1" cx="300" cy="300" r="42.13" transform="translate(-124.26 300) rotate(-45)"/><path class="cls-2" d="M277.24,323.84l3.51-13.1a24.29,24.29,0,1,1,9.66,9.57Zm13.83-8.44.83.5a19.7,19.7,0,1,0-6.74-6.68l.51.84-2,7.31Z"/><path class="cls-3" d="M310.92,302.41c-1-.6-2.29-1.26-3.47-.78-.9.37-1.47,1.78-2.06,2.5a.86.86,0,0,1-1.11.24,15.74,15.74,0,0,1-7.84-6.71,1,1,0,0,1,.12-1.31A5.36,5.36,0,0,0,298,294a5.07,5.07,0,0,0-.64-2.73c-.47-1-1-2.47-2-3a2.75,2.75,0,0,0-3,.44,6.12,6.12,0,0,0-2.12,4.84,7.2,7.2,0,0,0,.19,1.53,12.9,12.9,0,0,0,1.47,3.39c.48.8,1,1.58,1.54,2.33a23.82,23.82,0,0,0,6.66,6.19,20,20,0,0,0,4.15,2c1.63.54,3.08,1.1,4.84.77a5.85,5.85,0,0,0,4.38-3.26,2.83,2.83,0,0,0,.21-1.67C313.4,303.65,311.84,303,310.92,302.41Z"/></svg>