<svg id="Layer_1" data-name="Layer 1" xmlns="http://www.w3.org/2000/svg" viewBox="0 0 600 600"><defs><style>.cls-1{fill:#3b4c61;}.cls-2{fill:#40c4ff;}</style></defs><circle class="cls-1" cx="300" cy="300" r="41.88"/><path class="cls-2" d="M323.14,285.65a19.07,19.07,0,0,1-4.62,1.32c.74-.13,1.83-1.47,2.27-2a8.37,8.37,0,0,0,1.53-2.79c0-.08.07-.18,0-.24a.25.25,0,0,0-.24,0,23.93,23.93,0,0,1-5.48,2.09.37.37,0,0,1-.38-.1,3.65,3.65,0,0,0-.47-.49,9.93,9.93,0,0,0-2.66-1.62,9.26,9.26,0,0,0-4.07-.66,9.89,9.89,0,0,0-3.86,1.09A10.08,10.08,0,0,0,302,284.8a9.46,9.46,0,0,0-1.86,3.72,10.24,10.24,0,0,0-.1,3.94c0,.21,0,.24-.19.21-7.52-1.11-13.75-3.81-18.82-9.57-.22-.25-.33-.25-.52,0-2.21,3.32-1.14,8.65,1.63,11.27.37.35.75.7,1.16,1a9.59,9.59,0,0,1-3.63-1c-.22-.14-.33-.06-.35.19a5.73,5.73,0,0,0,.06,1.08,9.63,9.63,0,0,0,5.94,7.69,5.64,5.64,0,0,0,1.21.37,10.84,10.84,0,0,1-3.56.11c-.26-.05-.36.08-.26.33,1.57,4.27,4.95,5.54,7.48,6.27.34.05.68.05,1,.13,0,0,0,0-.06.06-.84,1.29-3.75,2.24-5.11,2.71a18.29,18.29,0,0,1-7.76,1c-.42-.06-.51-.06-.62,0s0,.17.12.28c.53.34,1.07.65,1.62.95a25.36,25.36,0,0,0,5.19,2.08c9.32,2.57,19.82.68,26.82-6.27,5.5-5.47,7.43-13,7.43-20.54,0-.3.35-.46.55-.62a18,18,0,0,0,3.65-3.79,1.18,1.18,0,0,0,.25-.73v0C323.33,285.53,323.32,285.57,323.14,285.65Z"/></svg>