<svg id="Layer_1" data-name="Layer 1" xmlns="http://www.w3.org/2000/svg" viewBox="0 0 600 600"><defs><style>.cls-1{fill:#3b4c61;}.cls-2{fill:#40c4ff;}</style></defs><path class="cls-1" d="M342,300a42,42,0,1,0-48.5,41.44V312.13H282.79V300h10.66v-9.24c0-10.52,6.26-16.32,15.84-16.32a64.44,64.44,0,0,1,9.39.82v10.32h-5.29c-5.21,0-6.84,3.23-6.84,6.55V300h11.64l-1.86,12.13h-9.78v29.31A42,42,0,0,0,342,300Z"/><path class="cls-2" d="M316.33,312.13,318.19,300H306.55v-7.87c0-3.32,1.63-6.55,6.84-6.55h5.29V275.26a64.44,64.44,0,0,0-9.39-.82c-9.58,0-15.84,5.8-15.84,16.32V300H282.79v12.13h10.66v29.31a42.32,42.32,0,0,0,13.1,0V312.13Z"/></svg>